<svg xmlns="http://www.w3.org/2000/svg" width="354.667" height="354.667" preserveAspectRatio="xMidYMid meet" version="1.0" viewBox="0 0 266 266"><metadata>Created by potrace 1.11, written by Peter Selinger 2001-2013</metadata><g fill="#000" stroke="none"><path d="M1315 2321 c-28 -17 -34 -17 -80 -3 -46 13 -134 9 -241 -12 -12 -2 -45 -7 -75 -11 -106 -13 -143 -27 -314 -116 -174 -91 -281 -165 -300 -207 -5 -12 -17 -24 -26 -27 -21 -7 -88 -71 -115 -110 -61 -87 -136 -357 -138 -495 -1 -84 2 -101 26 -150 14 -30 26 -62 26 -70 -1 -9 11 -34 26 -57 49 -74 134 -125 237 -143 35 -6 75 -13 89 -16 46 -8 115 -8 153 0 21 5 40 6 43 3 3 -2 -5 -21 -17 -41 -30 -51 -23 -130 15 -162 14 -13 26 -30 26 -39 0 -28 38 -90 62 -102 155 -75 209 -93 303 -100 106 -7 234 23 325 77 36 21 84 41 107 44 36 6 42 4 57 -19 10 -15 19 -36 22 -48 11 -62 55 -97 111 -91 28 3 43 -5 104 -56 39 -33 78 -60 86 -60 18 0 73 57 73 76 0 8 8 14 18 15 56 2 207 50 272 87 61 34 132 109 160 168 13 27 24 51 26 52 1 2 22 8 46 13 78 18 144 78 155 142 2 9 13 43 26 75 13 32 24 83 26 117 1 33 5 64 8 68 7 11 5 100 -2 142 -9 47 -36 126 -60 175 -12 25 -30 72 -39 105 -19 66 -55 127 -95 161 -14 12 -39 46 -55 75 -72 135 -250 322 -332 349 -21 7 -48 23 -61 37 -29 28 -99 64 -168 86 -244 78 -248 79 -375 83 -89 3 -110 1 -135 -15z" transform="translate(0.000000,266.000000) scale(0.100000,-0.100000)"/></g></svg>